<svg width="22" height="26" viewBox="0 0 22 26" fill="none" xmlns="http://www.w3.org/2000/svg">
<path d="M20.3008 2.81641L16.3252 7L22 7.25V9.32715H16.1992L20.2539 13.5967L18.7285 15.0968L14.5732 10.8643L14.1152 25.999L11.8057 26V17.499H10.1943V26L7.88477 25.999L7.42676 10.8643L3.27148 15.0968L1.74609 13.5967L5.7998 9.32715H0V7.25L5.6748 7L1.69922 2.81641L3.25684 1.26562L5.72559 3.73047C8.05246 6.05515 9.21597 7.21744 10.6455 7.35449C10.7633 7.36578 10.8818 7.37127 11 7.37207C11.1182 7.37127 11.2367 7.36578 11.3545 7.35449C12.784 7.21744 13.9475 6.05515 16.2744 3.73047L18.7422 1.26562L20.3008 2.81641Z" fill="white"/>
<path d="M13.5 2.55C13.5 3.95833 12.3807 5.1 11 5.1C9.61929 5.1 8.5 3.95833 8.5 2.55C8.5 1.14167 9.61929 0 11 0C12.3807 0 13.5 1.14167 13.5 2.55Z" fill="white"/>
</svg>
